# Blender v2.93.4 OBJ File: 'DrumStick.blend'
# www.blender.org
mtllib DrumStick.mtl
o Cylinder
v 0.000000 -0.607265 -0.100000
v 0.000000 1.384600 -0.100000
v 0.070711 -0.607265 -0.070711
v 0.070711 1.384600 -0.070711
v 0.100000 -0.607265 0.000000
v 0.100000 1.384600 0.000000
v 0.070711 -0.607265 0.070711
v 0.070711 1.384600 0.070711
v -0.000000 -0.607265 0.100000
v -0.000000 1.384600 0.100000
v -0.070711 -0.607265 0.070711
v -0.070711 1.384600 0.070711
v -0.100000 -0.607265 -0.000000
v -0.100000 1.384600 -0.000000
v -0.070711 -0.607265 -0.070711
v -0.070711 1.384600 -0.070711
v 0.000000 -0.607265 -0.100000
v 0.070711 -0.607265 -0.070711
v 0.100000 -0.607265 0.000000
v 0.070711 -0.607265 0.070711
v -0.000000 -0.607265 0.100000
v -0.070711 -0.607265 0.070711
v -0.100000 -0.607265 -0.000000
v -0.070711 -0.607265 -0.070711
v 0.000000 -0.607265 -0.100000
v 0.070711 -0.607265 -0.070711
v 0.100000 -0.607265 0.000000
v 0.070711 -0.607265 0.070711
v -0.000000 -0.607265 0.100000
v -0.070711 -0.607265 0.070711
v -0.100000 -0.607265 -0.000000
v -0.070711 -0.607265 -0.070711
v 0.000000 -0.657265 -0.051186
v 0.035355 -0.657265 -0.036194
v 0.050000 -0.657265 0.000000
v 0.035355 -0.657265 0.036194
v 0.000000 -0.657265 0.051186
v -0.035355 -0.657265 0.036194
v -0.050000 -0.657265 -0.000000
v -0.035355 -0.657265 -0.036194
v 0.029885 1.568998 -0.029885
v 0.000000 1.568998 -0.042264
v 0.042264 1.568998 0.000000
v 0.029885 1.568998 0.029885
v 0.000000 1.568998 0.042264
v -0.029885 1.568998 0.029885
v -0.042264 1.568998 0.000000
v -0.029885 1.568998 -0.029885
v -0.047993 1.588319 -0.047993
v -0.067872 1.588319 -0.000000
v -0.047993 1.588319 0.047993
v 0.000000 1.588319 0.067872
v 0.047993 1.588319 0.047993
v 0.067872 1.588319 0.000000
v 0.000000 1.588319 -0.067872
v 0.047993 1.588319 -0.047993
v 0.029885 1.568998 -0.029885
v 0.000000 1.568998 -0.042264
v 0.042264 1.568998 0.000000
v 0.029885 1.568998 0.029885
v 0.000000 1.568998 0.042264
v -0.029885 1.568998 0.029885
v -0.042264 1.568998 0.000000
v -0.029885 1.568998 -0.029885
v 0.059901 1.616752 -0.059900
v 0.000000 1.616752 -0.084712
v 0.084712 1.616752 0.000000
v 0.059901 1.616752 0.059900
v 0.000000 1.616752 0.084712
v -0.059900 1.616752 0.059900
v -0.084712 1.616752 -0.000000
v -0.059900 1.616752 -0.059900
v -0.059900 1.680517 -0.059900
v -0.084712 1.680517 -0.000000
v -0.059900 1.680517 0.059900
v 0.000000 1.680517 0.084712
v 0.059901 1.680517 0.059900
v 0.084712 1.680517 0.000000
v 0.000000 1.680517 -0.084712
v 0.059901 1.680517 -0.059900
v 0.043792 1.744895 -0.043792
v 0.000000 1.744895 -0.061931
v 0.061931 1.744895 0.000000
v 0.043792 1.744895 0.043792
v 0.000000 1.744895 0.061931
v -0.043792 1.744895 0.043792
v -0.061931 1.744895 -0.000000
v -0.043792 1.744895 -0.043792
v -0.014963 1.780742 -0.014963
v -0.021160 1.780742 -0.000000
v -0.014963 1.780742 0.014963
v 0.000000 1.780742 0.021160
v 0.014963 1.780742 0.014963
v 0.021160 1.780742 0.000000
v 0.000000 1.780742 -0.021160
v 0.014963 1.780742 -0.014963
v 0.000000 1.476799 -0.085731
v -0.060621 1.476799 0.060621
v 0.085731 1.476799 0.000000
v 0.060621 1.476799 -0.060621
v -0.060621 1.476799 -0.060621
v -0.085731 1.476799 -0.000000
v 0.000000 1.476799 0.085731
v 0.060621 1.476799 0.060621
v 0.014963 1.780742 -0.014963
v 0.000000 1.780742 -0.021160
v 0.021160 1.780742 0.000000
v 0.014963 1.780742 0.014963
v 0.000000 1.780742 0.021160
v -0.014963 1.780742 0.014963
v -0.021160 1.780742 -0.000000
v -0.014963 1.780742 -0.014963
vt 1.000000 0.500000
vt 1.000000 1.000000
vt 0.875000 1.000000
vt 0.875000 0.500000
vt 0.750000 1.000000
vt 0.750000 0.500000
vt 0.625000 1.000000
vt 0.625000 0.500000
vt 0.500000 1.000000
vt 0.500000 0.500000
vt 0.375000 1.000000
vt 0.375000 0.500000
vt 0.250000 1.000000
vt 0.250000 0.500000
vt 0.500000 1.000000
vt 0.625000 1.000000
vt 0.625000 1.000000
vt 0.500000 1.000000
vt 0.125000 1.000000
vt 0.125000 0.500000
vt 0.000000 1.000000
vt 0.000000 0.500000
vt 0.125000 0.500000
vt 0.250000 0.500000
vt 0.125000 0.500000
vt 0.250000 0.500000
vt 0.750000 0.500000
vt 0.875000 0.500000
vt 0.375000 0.500000
vt 0.500000 0.500000
vt 0.000000 0.500000
vt 1.000000 0.500000
vt 0.625000 0.500000
vt 0.125000 0.500000
vt 0.250000 0.500000
vt 0.375000 0.500000
vt 0.500000 0.500000
vt 0.625000 0.500000
vt 0.750000 0.500000
vt 0.875000 0.500000
vt 1.000000 0.500000
vt 0.000000 0.500000
vt 0.750000 0.490000
vt 0.919706 0.419706
vt 0.990000 0.250000
vt 0.919706 0.080294
vt 0.750000 0.010000
vt 0.580294 0.080294
vt 0.510000 0.250000
vt 0.580294 0.419706
vt 0.375000 0.500000
vt 0.500000 0.500000
vt 0.625000 0.500000
vt 0.750000 0.500000
vt 0.875000 0.500000
vt 1.000000 0.500000
vt 0.000000 0.500000
vt 0.250000 1.000000
vt 0.375000 1.000000
vt 0.375000 1.000000
vt 0.250000 1.000000
vt 0.125000 1.000000
vt 0.250000 1.000000
vt 0.250000 1.000000
vt 0.125000 1.000000
vt 0.750000 1.000000
vt 0.875000 1.000000
vt 0.875000 1.000000
vt 0.750000 1.000000
vt 0.375000 1.000000
vt 0.375000 1.000000
vt 0.000000 1.000000
vt 0.000000 1.000000
vt 1.000000 1.000000
vt 1.000000 1.000000
vt 0.125000 1.000000
vt 0.000000 1.000000
vt 1.000000 1.000000
vt 0.875000 1.000000
vt 0.750000 1.000000
vt 0.625000 1.000000
vt 0.500000 1.000000
vt 0.375000 1.000000
vt 0.250000 1.000000
vt 0.875000 1.000000
vt 0.750000 1.000000
vt 0.625000 1.000000
vt 0.500000 1.000000
vt 0.375000 1.000000
vt 0.250000 1.000000
vt 0.125000 1.000000
vt 0.000000 1.000000
vt 1.000000 1.000000
vt 0.375000 1.000000
vt 0.250000 1.000000
vt 0.625000 1.000000
vt 0.500000 1.000000
vt 0.875000 1.000000
vt 0.750000 1.000000
vt 0.125000 1.000000
vt 1.000000 1.000000
vt 0.000000 1.000000
vt 1.000000 1.000000
vt 0.875000 1.000000
vt 0.750000 1.000000
vt 0.625000 1.000000
vt 0.500000 1.000000
vt 0.375000 1.000000
vt 0.250000 1.000000
vt 0.125000 1.000000
vt 0.000000 1.000000
vt 0.875000 1.000000
vt 0.750000 1.000000
vt 0.250000 1.000000
vt 0.125000 1.000000
vt 0.500000 1.000000
vt 0.375000 1.000000
vt 0.625000 1.000000
vt 1.000000 1.000000
vt 0.000000 1.000000
vt 0.875000 1.000000
vt 0.750000 1.000000
vt 0.625000 1.000000
vt 0.500000 1.000000
vt 0.125000 1.000000
vt 0.000000 1.000000
vt 1.000000 1.000000
vt 0.419706 0.419706
vt 0.250000 0.490000
vt 0.080294 0.419706
vt 0.010000 0.250000
vt 0.080294 0.080294
vt 0.250000 0.010000
vt 0.419706 0.080294
vt 0.490000 0.250000
vt 0.625000 1.000000
vt 0.500000 1.000000
vt 0.875000 1.000000
vt 0.750000 1.000000
vt 0.125000 1.000000
vt 1.000000 1.000000
vt 0.000000 1.000000
vn 0.3827 0.0000 -0.9239
vn 0.9239 0.0000 -0.3827
vn 0.9239 0.0000 0.3827
vn 0.3827 0.0000 0.9239
vn -0.3827 0.0000 0.9239
vn -0.9239 0.0000 0.3827
vn 0.3508 0.3993 0.8470
vn -0.9239 0.0000 -0.3827
vn -0.3827 0.0000 -0.9239
vn 0.0000 0.0000 1.0000
vn -0.6805 -0.6773 -0.2796
vn 0.0000 -1.0000 -0.0000
vn -0.2856 -0.6711 0.6841
vn 0.6805 -0.6773 0.2796
vn 0.2856 -0.6711 -0.6841
vn -0.2856 -0.6711 -0.6841
vn -0.6805 -0.6773 0.2796
vn 0.2856 -0.6711 0.6841
vn 0.6805 -0.6773 -0.2796
vn -0.8470 0.3993 -0.3508
vn 0.8470 0.3993 -0.3508
vn -0.3508 0.3993 0.8470
vn -0.3508 0.3993 -0.8470
vn 0.3508 0.3993 -0.8470
vn 0.8470 0.3993 0.3508
vn -0.8470 0.3993 0.3508
vn -0.3788 0.1415 -0.9146
vn 0.5844 -0.7745 -0.2421
vn 0.2421 -0.7745 0.5844
vn -0.5844 -0.7745 0.2421
vn -0.2421 -0.7745 -0.5844
vn 0.2421 -0.7746 -0.5844
vn 0.5844 -0.7745 0.2421
vn -0.2421 -0.7746 0.5844
vn -0.5844 -0.7745 -0.2421
vn -0.8105 -0.4800 0.3357
vn 0.3357 -0.4800 0.8105
vn 0.8105 -0.4800 -0.3357
vn -0.8105 -0.4800 -0.3357
vn -0.3357 -0.4800 0.8105
vn 0.8105 -0.4800 0.3357
vn 0.3357 -0.4800 -0.8105
vn -0.3357 -0.4800 -0.8105
vn 0.8781 0.3107 -0.3637
vn -0.8781 0.3107 -0.3637
vn -0.3637 0.3107 0.8781
vn 0.8781 0.3107 0.3637
vn 0.3637 0.3107 -0.8781
vn -0.3637 0.3107 -0.8781
vn -0.8781 0.3107 0.3637
vn 0.3637 0.3107 0.8781
vn 0.6369 0.7244 -0.2638
vn 0.2638 0.7244 0.6369
vn -0.6369 0.7244 0.2638
vn -0.2638 0.7244 -0.6369
vn 0.2638 0.7244 -0.6369
vn 0.6369 0.7244 0.2638
vn -0.2638 0.7244 0.6369
vn -0.6369 0.7244 -0.2638
vn 0.0000 1.0000 0.0000
vn 0.3788 0.1415 0.9146
vn 0.9146 0.1415 0.3788
vn -0.3788 0.1415 0.9146
vn -0.9146 0.1415 -0.3788
vn -0.9146 0.1415 0.3788
vn 0.3788 0.1415 -0.9146
vn 0.9146 0.1415 -0.3788
usemtl Material
s off
f 1/1/1 2/2/1 4/3/1 3/4/1
f 3/4/2 4/3/2 6/5/2 5/6/2
f 5/6/3 6/5/3 8/7/3 7/8/3
f 7/8/4 8/7/4 10/9/4 9/10/4
f 9/10/5 10/9/5 12/11/5 11/12/5
f 11/12/6 12/11/6 14/13/6 13/14/6
f 103/15/7 104/16/7 44/17/7 45/18/7
f 13/14/8 14/13/8 16/19/8 15/20/8
f 15/20/9 16/19/9 2/21/9 1/22/9
f 13/14/10 15/20/10 24/23/10 23/24/10
f 23/24/10 24/23/10 32/25/10 31/26/10
f 3/4/10 5/6/10 19/27/10 18/28/10
f 9/10/10 11/12/10 22/29/10 21/30/10
f 15/20/10 1/22/10 17/31/10 24/23/10
f 1/1/10 3/4/10 18/28/10 17/32/10
f 5/6/10 7/8/10 20/33/10 19/27/10
f 11/12/10 13/14/10 23/24/10 22/29/10
f 7/8/10 9/10/10 21/30/10 20/33/10
f 31/26/11 32/25/11 40/34/11 39/35/11
f 21/30/10 22/29/10 30/36/10 29/37/10
f 19/27/10 20/33/10 28/38/10 27/39/10
f 17/32/10 18/28/10 26/40/10 25/41/10
f 24/23/10 17/31/10 25/42/10 32/25/10
f 22/29/10 23/24/10 31/26/10 30/36/10
f 20/33/10 21/30/10 29/37/10 28/38/10
f 18/28/10 19/27/10 27/39/10 26/40/10
f 33/43/12 34/44/12 35/45/12 36/46/12 37/47/12 38/48/12 39/49/12 40/50/12
f 29/37/13 30/36/13 38/51/13 37/52/13
f 27/39/14 28/38/14 36/53/14 35/54/14
f 25/41/15 26/40/15 34/55/15 33/56/15
f 32/25/16 25/42/16 33/57/16 40/34/16
f 30/36/17 31/26/17 39/35/17 38/51/17
f 28/38/18 29/37/18 37/52/18 36/53/18
f 26/40/19 27/39/19 35/54/19 34/55/19
f 90/58/10 91/59/10 110/60/10 111/61/10
f 101/62/20 102/63/20 47/64/20 48/65/20
f 99/66/21 100/67/21 41/68/21 43/69/21
f 98/70/22 103/15/22 45/18/22 46/71/22
f 97/72/23 101/62/23 48/65/23 42/73/23
f 100/67/24 97/74/24 42/75/24 41/68/24
f 104/16/25 99/66/25 43/69/25 44/17/25
f 102/63/26 98/70/26 46/71/26 47/64/26
f 42/73/10 48/65/10 64/76/10 58/77/10
f 41/68/10 42/75/10 58/78/10 57/79/10
f 44/17/10 43/69/10 59/80/10 60/81/10
f 46/71/10 45/18/10 61/82/10 62/83/10
f 48/65/10 47/64/10 63/84/10 64/76/10
f 43/69/10 41/68/10 57/79/10 59/80/10
f 45/18/10 44/17/10 60/81/10 61/82/10
f 47/64/10 46/71/10 62/83/10 63/84/10
f 2/21/27 16/19/27 101/62/27 97/72/27
f 59/80/28 57/79/28 56/85/28 54/86/28
f 61/82/29 60/81/29 53/87/29 52/88/29
f 63/84/30 62/83/30 51/89/30 50/90/30
f 58/77/31 64/76/31 49/91/31 55/92/31
f 57/79/32 58/78/32 55/93/32 56/85/32
f 60/81/33 59/80/33 54/86/33 53/87/33
f 62/83/34 61/82/34 52/88/34 51/89/34
f 64/76/35 63/84/35 50/90/35 49/91/35
f 50/90/36 51/89/36 70/94/36 71/95/36
f 52/88/37 53/87/37 68/96/37 69/97/37
f 54/86/38 56/85/38 65/98/38 67/99/38
f 49/91/39 50/90/39 71/95/39 72/100/39
f 51/89/40 52/88/40 69/97/40 70/94/40
f 53/87/41 54/86/41 67/99/41 68/96/41
f 56/85/42 55/93/42 66/101/42 65/98/42
f 55/92/43 49/91/43 72/100/43 66/102/43
f 65/98/1 66/101/1 79/103/1 80/104/1
f 68/96/3 67/99/3 78/105/3 77/106/3
f 70/94/5 69/97/5 76/107/5 75/108/5
f 72/100/8 71/95/8 74/109/8 73/110/8
f 67/99/2 65/98/2 80/104/2 78/105/2
f 69/97/4 68/96/4 77/106/4 76/107/4
f 71/95/6 70/94/6 75/108/6 74/109/6
f 66/102/9 72/100/9 73/110/9 79/111/9
f 78/105/44 80/104/44 81/112/44 83/113/44
f 73/110/45 74/109/45 87/114/45 88/115/45
f 75/108/46 76/107/46 85/116/46 86/117/46
f 77/106/47 78/105/47 83/113/47 84/118/47
f 80/104/48 79/103/48 82/119/48 81/112/48
f 79/111/49 73/110/49 88/115/49 82/120/49
f 74/109/50 75/108/50 86/117/50 87/114/50
f 76/107/51 77/106/51 84/118/51 85/116/51
f 83/113/52 81/112/52 96/121/52 94/122/52
f 85/116/53 84/118/53 93/123/53 92/124/53
f 87/114/54 86/117/54 91/59/54 90/58/54
f 82/120/55 88/115/55 89/125/55 95/126/55
f 81/112/56 82/119/56 95/127/56 96/121/56
f 84/118/57 83/113/57 94/122/57 93/123/57
f 86/117/58 85/116/58 92/124/58 91/59/58
f 88/115/59 87/114/59 90/58/59 89/125/59
f 105/128/60 106/129/60 112/130/60 111/131/60 110/132/60 109/133/60 108/134/60 107/135/60
f 92/124/10 93/123/10 108/136/10 109/137/10
f 94/122/10 96/121/10 105/138/10 107/139/10
f 89/125/10 90/58/10 111/61/10 112/140/10
f 91/59/10 92/124/10 109/137/10 110/60/10
f 93/123/10 94/122/10 107/139/10 108/136/10
f 96/121/10 95/127/10 106/141/10 105/138/10
f 95/126/10 89/125/10 112/140/10 106/142/10
f 10/9/61 8/7/61 104/16/61 103/15/61
f 8/7/62 6/5/62 99/66/62 104/16/62
f 12/11/63 10/9/63 103/15/63 98/70/63
f 16/19/64 14/13/64 102/63/64 101/62/64
f 14/13/65 12/11/65 98/70/65 102/63/65
f 4/3/66 2/2/66 97/74/66 100/67/66
f 6/5/67 4/3/67 100/67/67 99/66/67
